<svg width="19" height="19" viewBox="0 0 19 19" fill="none" xmlns="http://www.w3.org/2000/svg">
<path d="M9.50114 6.53882C10.4563 5.56278 11.7001 4.92424 13.147 4.92424C14.6664 4.92424 16.1237 5.52785 17.1981 6.60227C18.2725 7.6767 18.8761 9.13394 18.8761 10.6534V18.4659H16.7928V10.6534C16.7928 9.68647 16.4087 8.75914 15.725 8.07541C15.0412 7.39169 14.1139 7.00757 13.147 7.00757C12.18 7.00757 11.2527 7.39169 10.569 8.07541C9.88525 8.75914 9.50114 9.68647 9.50114 10.6534V18.4659H7.41781V5.44507H9.50114V6.53882ZM2.20947 3.36174C1.79507 3.36174 1.39764 3.19712 1.10462 2.90409C0.811593 2.61107 0.646973 2.21364 0.646973 1.79924C0.646973 1.38484 0.811593 0.987411 1.10462 0.694386C1.39764 0.40136 1.79507 0.23674 2.20947 0.23674C2.62387 0.23674 3.0213 0.40136 3.31433 0.694386C3.60735 0.987411 3.77197 1.38484 3.77197 1.79924C3.77197 2.21364 3.60735 2.61107 3.31433 2.90409C3.0213 3.19712 2.62387 3.36174 2.20947 3.36174ZM1.16781 5.44507H3.25114V18.4659H1.16781V5.44507Z" fill="#F8F8F8"/>
</svg>
