<svg width="43" height="37" viewBox="0 0 43 37" fill="none" xmlns="http://www.w3.org/2000/svg">
<path d="M39.6556 37L24.6056 24.05C23.4111 24.8722 22.0375 25.5231 20.4847 26.0028C18.9319 26.4824 17.2796 26.7222 15.5278 26.7222C11.188 26.7222 7.51544 25.4286 4.51022 22.8413C1.505 20.2541 0.00159259 17.094 0 13.3611C0 9.62685 1.50341 6.46678 4.51022 3.88089C7.51704 1.295 11.1896 0.00137037 15.5278 0C19.8676 0 23.5401 1.29363 26.5453 3.88089C29.5506 6.46815 31.054 9.62822 31.0556 13.3611C31.0556 14.8685 30.7768 16.2903 30.2194 17.6264C29.662 18.9625 28.9056 20.1444 27.95 21.1722L43 34.1222L39.6556 37ZM15.5278 22.6111C18.5139 22.6111 21.0525 21.7115 23.1436 19.9122C25.2346 18.1129 26.2794 15.9292 26.2778 13.3611C26.2778 10.7917 25.2322 8.6073 23.1412 6.808C21.0501 5.0087 18.5123 4.10974 15.5278 4.11111C12.5417 4.11111 10.0031 5.01076 7.912 6.81006C5.82093 8.60935 4.77619 10.793 4.77778 13.3611C4.77778 15.9306 5.82332 18.1149 7.91439 19.9142C10.0055 21.7135 12.5433 22.6125 15.5278 22.6111Z" fill="#EDEDED"/>
</svg>
