<svg width="45" height="45" viewBox="0 0 45 45" fill="none" xmlns="http://www.w3.org/2000/svg">
<path d="M42.8309 22.2152C42.7712 22.0816 41.3333 18.8947 38.1147 15.6762C35.1335 12.6949 30.0059 9.14062 22.5001 9.14062C14.9942 9.14062 9.86666 12.6949 6.88541 15.6762C3.66686 18.8947 2.22897 22.0816 2.1692 22.2152C2.13006 22.3054 2.10986 22.4026 2.10986 22.5009C2.10986 22.5992 2.13006 22.6964 2.1692 22.7865C2.22897 22.9219 3.66686 26.107 6.88541 29.3256C9.87369 32.3139 14.996 35.8594 22.5001 35.8594C30.0042 35.8594 35.1335 32.3068 38.1147 29.3256C41.3333 26.107 42.7712 22.9219 42.8309 22.7865C42.8701 22.6964 42.8903 22.5992 42.8903 22.5009C42.8903 22.4026 42.8701 22.3054 42.8309 22.2152ZM37.0829 28.3676C33.0276 32.4105 28.118 34.4531 22.493 34.4531C16.868 34.4531 11.9655 32.4053 7.90319 28.3676C6.17471 26.6438 4.72107 24.6649 3.59303 22.5C4.72317 20.3346 6.17921 18.3557 7.91022 16.6324C11.9725 12.5947 16.8751 10.5469 22.5001 10.5469C28.1251 10.5469 33.0276 12.5947 37.0899 16.6324C38.8207 18.3559 40.2767 20.3348 41.4071 22.5C40.2769 24.6653 38.8209 26.6443 37.0899 28.3676H37.0829ZM22.5001 14.7656C20.9703 14.7656 19.475 15.2192 18.2031 16.0691C16.9312 16.919 15.9398 18.1269 15.3544 19.5402C14.769 20.9535 14.6159 22.5086 14.9143 24.0089C15.2127 25.5092 15.9494 26.8874 17.031 27.969C18.1127 29.0507 19.4908 29.7873 20.9912 30.0858C22.4915 30.3842 24.0466 30.231 25.4599 29.6456C26.8732 29.0602 28.0811 28.0689 28.931 26.797C29.7808 25.5251 30.2344 24.0297 30.2344 22.5C30.2321 20.4494 29.4165 18.4835 27.9665 17.0335C26.5165 15.5836 24.5506 14.768 22.5001 14.7656ZM22.5001 28.8281C21.2485 28.8281 20.025 28.457 18.9843 27.7616C17.9437 27.0663 17.1326 26.078 16.6536 24.9217C16.1747 23.7654 16.0494 22.493 16.2935 21.2654C16.5377 20.0379 17.1404 18.9103 18.0254 18.0253C18.9104 17.1403 20.038 16.5376 21.2655 16.2935C22.493 16.0493 23.7654 16.1746 24.9217 16.6536C26.078 17.1325 27.0664 17.9436 27.7617 18.9843C28.457 20.0249 28.8282 21.2484 28.8282 22.5C28.8282 24.1783 28.1615 25.7879 26.9747 26.9747C25.788 28.1614 24.1784 28.8281 22.5001 28.8281Z" fill="#F8F8F8"/>
</svg>
